{
  "accessors": [
    {
      "bufferView": 2,
      "componentType": 5126,
      "count": 65532,
      "max": [
        1.0281825065612793,
        0.03698473423719406,
        1.0546720027923584
      ],
      "min": [
        -1.0573830604553223,
        -0.12263008952140808,
        -1.008668303489685
      ],
      "type": "VEC3"
    },
    {
      "bufferView": 2,
      "byteOffset": 786384,
      "componentType": 5126,
      "count": 65532,
      "max": [
        0.9969198703765869,
        0.9969552755355835,
        0.9997855424880981
      ],
      "min": [
        -0.9969217777252197,
        -1.0,
        -0.9969218969345093
      ],
      "type": "VEC3"
    },
    {
      "bufferView": 1,
      "componentType": 5126,
      "count": 65532,
      "max": [
        1.0,
        1.0
      ],
      "min": [
        0.0,
        0.0
      ],
      "type": "VEC2"
    },
    {
      "bufferView": 0,
      "componentType": 5125,
      "count": 355599,
      "type": "SCALAR"
    },
    {
      "bufferView": 2,
      "byteOffset": 1572768,
      "componentType": 5126,
      "count": 65532,
      "max": [
        0.8819783329963684,
        0.012000005692243576,
        0.5736095309257507
      ],
      "min": [
        0.6321170330047607,
        -0.012000005692243576,
        -0.11605903506278992
      ],
      "type": "VEC3"
    },
    {
      "bufferView": 2,
      "byteOffset": 2359152,
      "componentType": 5126,
      "count": 65532,
      "max": [
        0.9969205856323242,
        0.9969550371170044,
        0.9997855424880981
      ],
      "min": [
        -0.9969209432601929,
        -0.9969550371170044,
        -0.9969217777252197
      ],
      "type": "VEC3"
    },
    {
      "bufferView": 1,
      "byteOffset": 524256,
      "componentType": 5126,
      "count": 65532,
      "max": [
        1.0,
        1.0
      ],
      "min": [
        0.0,
        0.0
      ],
      "type": "VEC2"
    },
    {
      "bufferView": 0,
      "byteOffset": 1422396,
      "componentType": 5125,
      "count": 357744,
      "type": "SCALAR"
    },
    {
      "bufferView": 2,
      "byteOffset": 3145536,
      "componentType": 5126,
      "count": 65532,
      "max": [
        0.8618189692497253,
        0.012000005692243576,
        -0.08011825382709503
      ],
      "min": [
        0.37913215160369873,
        -0.012000005692243576,
        -0.7620381116867065
      ],
      "type": "VEC3"
    },
    {
      "bufferView": 2,
      "byteOffset": 3931920,
      "componentType": 5126,
      "count": 65532,
      "max": [
        0.9970530867576599,
        0.9969559907913208,
        0.9969185590744019
      ],
      "min": [
        -0.996921181678772,
        -0.996955156326294,
        -0.9969217777252197
      ],
      "type": "VEC3"
    },
    {
      "bufferView": 1,
      "byteOffset": 1048512,
      "componentType": 5126,
      "count": 65532,
      "max": [
        1.0,
        1.0
      ],
      "min": [
        0.0,
        0.0
      ],
      "type": "VEC2"
    },
    {
      "bufferView": 0,
      "byteOffset": 2853372,
      "componentType": 5125,
      "count": 356907,
      "type": "SCALAR"
    },
    {
      "bufferView": 2,
      "byteOffset": 4718304,
      "componentType": 5126,
      "count": 65532,
      "max": [
        0.42019739747047424,
        0.012000005692243576,
        0.6150190830230713
      ],
      "min": [
        -0.858543872833252,
        -0.012000005692243576,
        -0.8680909276008606
      ],
      "type": "VEC3"
    },
    {
      "bufferView": 2,
      "byteOffset": 5504688,
      "componentType": 5126,
      "count": 65532,
      "max": [
        0.9970530867576599,
        0.9969562292098999,
        0.9969217777252197
      ],
      "min": [
        -0.9969199895858765,
        -0.9969562292098999,
        -0.9969217777252197
      ],
      "type": "VEC3"
    },
    {
      "bufferView": 1,
      "byteOffset": 1572768,
      "componentType": 5126,
      "count": 65532,
      "max": [
        1.0,
        1.0
      ],
      "min": [
        0.0,
        0.0
      ],
      "type": "VEC2"
    },
    {
      "bufferView": 0,
      "byteOffset": 4281000,
      "componentType": 5125,
      "count": 355410,
      "type": "SCALAR"
    },
    {
      "bufferView": 2,
      "byteOffset": 6291072,
      "componentType": 5126,
      "count": 65532,
      "max": [
        0.8799782991409302,
        0.012000005692243576,
        0.8691281080245972
      ],
      "min": [
        -0.6838415265083313,
        -0.012000005692243576,
        -0.871045708656311
      ],
      "type": "VEC3"
    },
    {
      "bufferView": 2,
      "byteOffset": 7077456,
      "componentType": 5126,
      "count": 65532,
      "max": [
        0.9969193935394287,
        0.9969562292098999,
        0.9969195127487183
      ],
      "min": [
        -0.9999607801437378,
        -1.0,
        -0.99691241979599
      ],
      "type": "VEC3"
    },
    {
      "bufferView": 1,
      "byteOffset": 2097024,
      "componentType": 5126,
      "count": 65532,
      "max": [
        1.0,
        1.0
      ],
      "min": [
        0.0,
        0.0
      ],
      "type": "VEC2"
    },
    {
      "bufferView": 0,
      "byteOffset": 5702640,
      "componentType": 5125,
      "count": 298791,
      "type": "SCALAR"
    },
    {
      "bufferView": 2,
      "byteOffset": 7863840,
      "componentType": 5126,
      "count": 65532,
      "max": [
        0.8799782991409302,
        0.012000005692243576,
        0.9161599278450012
      ],
      "min": [
        -0.9031278491020203,
        -0.012000005692243576,
        -0.871045708656311
      ],
      "type": "VEC3"
    },
    {
      "bufferView": 2,
      "byteOffset": 8650224,
      "componentType": 5126,
      "count": 65532,
      "max": [
        0.9969179630279541,
        1.0,
        0.9969182014465332
      ],
      "min": [
        -0.9969179630279541,
        -1.0,
        -0.9969185590744019
      ],
      "type": "VEC3"
    },
    {
      "bufferView": 1,
      "byteOffset": 2621280,
      "componentType": 5126,
      "count": 65532,
      "max": [
        1.0,
        1.0
      ],
      "min": [
        0.0,
        0.0
      ],
      "type": "VEC2"
    },
    {
      "bufferView": 0,
      "byteOffset": 6897804,
      "componentType": 5125,
      "count": 209670,
      "type": "SCALAR"
    },
    {
      "bufferView": 2,
      "byteOffset": 9436608,
      "componentType": 5126,
      "count": 65532,
      "max": [
        -0.03646952658891678,
        0.012000005692243576,
        0.9090254306793213
      ],
      "min": [
        -0.9051278829574585,
        -0.012000005692243576,
        -0.28975364565849304
      ],
      "type": "VEC3"
    },
    {
      "bufferView": 2,
      "byteOffset": 10222992,
      "componentType": 5126,
      "count": 65532,
      "max": [
        0.996920108795166,
        0.9969557523727417,
        0.9969191551208496
      ],
      "min": [
        -0.9969215393066406,
        -0.9969557523727417,
        -0.9969195127487183
      ],
      "type": "VEC3"
    },
    {
      "bufferView": 1,
      "byteOffset": 3145536,
      "componentType": 5126,
      "count": 65532,
      "max": [
        1.0,
        1.0
      ],
      "min": [
        0.0,
        0.0
      ],
      "type": "VEC2"
    },
    {
      "bufferView": 0,
      "byteOffset": 7736484,
      "componentType": 5125,
      "count": 356763,
      "type": "SCALAR"
    },
    {
      "bufferView": 2,
      "byteOffset": 11009376,
      "componentType": 5126,
      "count": 65532,
      "max": [
        -0.24822942912578583,
        0.012000005692243576,
        -0.2572689652442932
      ],
      "min": [
        -0.8527308702468872,
        -0.012000005692243576,
        -0.8341707587242126
      ],
      "type": "VEC3"
    },
    {
      "bufferView": 2,
      "byteOffset": 11795760,
      "componentType": 5126,
      "count": 65532,
      "max": [
        0.9969208240509033,
        0.9969555139541626,
        0.9969209432601929
      ],
      "min": [
        -0.9969174861907959,
        -0.9969552755355835,
        -0.9996297359466553
      ],
      "type": "VEC3"
    },
    {
      "bufferView": 1,
      "byteOffset": 3669792,
      "componentType": 5126,
      "count": 65532,
      "max": [
        1.0,
        1.0
      ],
      "min": [
        0.0,
        0.0
      ],
      "type": "VEC2"
    },
    {
      "bufferView": 0,
      "byteOffset": 9163536,
      "componentType": 5125,
      "count": 356271,
      "type": "SCALAR"
    },
    {
      "bufferView": 2,
      "byteOffset": 12582144,
      "componentType": 5126,
      "count": 27435,
      "max": [
        -0.024910036474466324,
        0.012000005692243576,
        -0.7830133438110352
      ],
      "min": [
        -0.2887570559978485,
        -0.012000005692243576,
        -0.8730456829071045
      ],
      "type": "VEC3"
    },
    {
      "bufferView": 2,
      "byteOffset": 12911364,
      "componentType": 5126,
      "count": 27435,
      "max": [
        0.996917724609375,
        0.9969543218612671,
        0.9969156384468079
      ],
      "min": [
        -0.9969170093536377,
        -0.9969555139541626,
        -0.9969191551208496
      ],
      "type": "VEC3"
    },
    {
      "bufferView": 1,
      "byteOffset": 4194048,
      "componentType": 5126,
      "count": 27435,
      "max": [
        1.0,
        1.0
      ],
      "min": [
        0.0,
        0.0
      ],
      "type": "VEC2"
    },
    {
      "bufferView": 0,
      "byteOffset": 10588620,
      "componentType": 5125,
      "count": 149847,
      "type": "SCALAR"
    },
    {
      "bufferView": 2,
      "byteOffset": 13240584,
      "componentType": 5126,
      "count": 256,
      "max": [
        0.9199447631835938,
        0.004019945859909058,
        0.9475876688957214
      ],
      "min": [
        -0.9491451978683472,
        0.00401981920003891,
        -0.9015840888023376
      ],
      "type": "VEC3"
    },
    {
      "bufferView": 2,
      "byteOffset": 13243656,
      "componentType": 5126,
      "count": 256,
      "max": [
        0.5941782593727112,
        -0.8033857941627502,
        0.5954589247703552
      ],
      "min": [
        -0.5941782593727112,
        -1.0,
        -0.5954589247703552
      ],
      "type": "VEC3"
    },
    {
      "bufferView": 1,
      "byteOffset": 4413528,
      "componentType": 5126,
      "count": 256,
      "max": [
        0.9688742160797119,
        0.4688738286495209
      ],
      "min": [
        0.5311257839202881,
        0.03112589754164219
      ],
      "type": "VEC2"
    },
    {
      "bufferView": 0,
      "byteOffset": 11188008,
      "componentType": 5125,
      "count": 768,
      "type": "SCALAR"
    },
    {
      "bufferView": 2,
      "byteOffset": 13246728,
      "componentType": 5126,
      "count": 128,
      "max": [
        0.7526850700378418,
        0.004019945859909058,
        0.7821103930473328
      ],
      "min": [
        -0.78188556432724,
        0.00401981920003891,
        -0.736106812953949
      ],
      "type": "VEC3"
    },
    {
      "bufferView": 2,
      "byteOffset": 13248264,
      "componentType": 5126,
      "count": 128,
      "max": [
        0.606314480304718,
        -0.794447124004364,
        0.6073334813117981
      ],
      "min": [
        -0.606314480304718,
        -0.795233428478241,
        -0.6073334813117981
      ],
      "type": "VEC3"
    },
    {
      "bufferView": 1,
      "byteOffset": 4415576,
      "componentType": 5126,
      "count": 128,
      "max": [
        0.9300979375839233,
        0.9490607380867004
      ],
      "min": [
        0.06730755418539047,
        0.05093914270401001
      ],
      "type": "VEC2"
    },
    {
      "bufferView": 0,
      "byteOffset": 11191080,
      "componentType": 5125,
      "count": 378,
      "type": "SCALAR"
    },
    {
      "bufferView": 2,
      "byteOffset": 13249800,
      "componentType": 5126,
      "count": 2880,
      "max": [
        0.6566697359085083,
        0.5969075560569763,
        2.0488975048065186
      ],
      "min": [
        -0.6591767072677612,
        0.41598737239837646,
        -0.6507835388183594
      ],
      "type": "VEC3"
    },
    {
      "bufferView": 2,
      "byteOffset": 13284360,
      "componentType": 5126,
      "count": 2880,
      "max": [
        0.38252297043800354,
        0.9999942183494568,
        0.23516705632209778
      ],
      "min": [
        -0.3948659896850586,
        0.4894905984401703,
        -0.8379769325256348
      ],
      "type": "VEC3"
    },
    {
      "bufferView": 1,
      "byteOffset": 4416600,
      "componentType": 5126,
      "count": 2880,
      "max": [
        0.9969711899757385,
        0.9956064820289612
      ],
      "min": [
        0.0,
        0.0
      ],
      "type": "VEC2"
    },
    {
      "bufferView": 0,
      "byteOffset": 11192592,
      "componentType": 5125,
      "count": 4308,
      "type": "SCALAR"
    }
  ],
  "asset": {
    "extras": {
      "author": "kanzari.design (https://sketchfab.com/kanzari.design)",
      "license": "CC-BY-4.0 (http://creativecommons.org/licenses/by/4.0/)",
      "source": "https://sketchfab.com/3d-models/ethereum-coin-284290a75d68441a883ea7854293617b",
      "title": "Ethereum coin"
    },
    "generator": "Sketchfab-12.0.1",
    "version": "2.0"
  },
  "bufferViews": [
    {
      "buffer": 0,
      "byteLength": 11209824,
      "name": "floatBufferViews",
      "target": 34963
    },
    {
      "buffer": 0,
      "byteLength": 4439640,
      "byteOffset": 11209824,
      "byteStride": 8,
      "name": "floatBufferViews",
      "target": 34962
    },
    {
      "buffer": 0,
      "byteLength": 13318920,
      "byteOffset": 15649464,
      "byteStride": 12,
      "name": "floatBufferViews",
      "target": 34962
    }
  ],
  "buffers": [
    {
      "byteLength": 28968384,
      "uri": "scene.bin"
    }
  ],
  "images": [
    {
      "uri": "textures/Gold.texture_baseColor.png"
    },
    {
      "uri": "textures/Gold.texture_metallicRoughness.png"
    },
    {
      "uri": "textures/Gold.texture_emissive.png"
    }
  ],
  "materials": [
    {
      "doubleSided": true,
      "name": "Gold",
      "pbrMetallicRoughness": {
        "baseColorFactor": [
          0.8,
          0.290853,
          0.0113752,
          1.0
        ],
        "roughnessFactor": 0.323529
      }
    },
    {
      "doubleSided": true,
      "name": "Black_metalic",
      "pbrMetallicRoughness": {
        "baseColorFactor": [
          0.0,
          0.0,
          0.0,
          1.0
        ],
        "metallicFactor": 0.0,
        "roughnessFactor": 0.055
      }
    },
    {
      "alphaMode": "BLEND",
      "doubleSided": true,
      "emissiveTexture": {
        "index": 2
      },
      "name": "Gold.texture",
      "pbrMetallicRoughness": {
        "baseColorFactor": [
          0.41591835841330715,
          0.19690574200819558,
          0.025504696020806055,
          1.0
        ],
        "baseColorTexture": {
          "index": 0
        },
        "metallicRoughnessTexture": {
          "index": 1
        }
      }
    }
  ],
  "meshes": [
    {
      "name": "Object_0",
      "primitives": [
        {
          "attributes": {
            "NORMAL": 1,
            "POSITION": 0,
            "TEXCOORD_0": 2
          },
          "indices": 3,
          "material": 0,
          "mode": 4
        }
      ]
    },
    {
      "name": "Object_1",
      "primitives": [
        {
          "attributes": {
            "NORMAL": 5,
            "POSITION": 4,
            "TEXCOORD_0": 6
          },
          "indices": 7,
          "material": 0,
          "mode": 4
        }
      ]
    },
    {
      "name": "Object_2",
      "primitives": [
        {
          "attributes": {
            "NORMAL": 9,
            "POSITION": 8,
            "TEXCOORD_0": 10
          },
          "indices": 11,
          "material": 0,
          "mode": 4
        }
      ]
    },
    {
      "name": "Object_3",
      "primitives": [
        {
          "attributes": {
            "NORMAL": 13,
            "POSITION": 12,
            "TEXCOORD_0": 14
          },
          "indices": 15,
          "material": 0,
          "mode": 4
        }
      ]
    },
    {
      "name": "Object_4",
      "primitives": [
        {
          "attributes": {
            "NORMAL": 17,
            "POSITION": 16,
            "TEXCOORD_0": 18
          },
          "indices": 19,
          "material": 0,
          "mode": 4
        }
      ]
    },
    {
      "name": "Object_5",
      "primitives": [
        {
          "attributes": {
            "NORMAL": 21,
            "POSITION": 20,
            "TEXCOORD_0": 22
          },
          "indices": 23,
          "material": 0,
          "mode": 4
        }
      ]
    },
    {
      "name": "Object_6",
      "primitives": [
        {
          "attributes": {
            "NORMAL": 25,
            "POSITION": 24,
            "TEXCOORD_0": 26
          },
          "indices": 27,
          "material": 0,
          "mode": 4
        }
      ]
    },
    {
      "name": "Object_7",
      "primitives": [
        {
          "attributes": {
            "NORMAL": 29,
            "POSITION": 28,
            "TEXCOORD_0": 30
          },
          "indices": 31,
          "material": 0,
          "mode": 4
        }
      ]
    },
    {
      "name": "Object_8",
      "primitives": [
        {
          "attributes": {
            "NORMAL": 33,
            "POSITION": 32,
            "TEXCOORD_0": 34
          },
          "indices": 35,
          "material": 0,
          "mode": 4
        }
      ]
    },
    {
      "name": "Object_9",
      "primitives": [
        {
          "attributes": {
            "NORMAL": 37,
            "POSITION": 36,
            "TEXCOORD_0": 38
          },
          "indices": 39,
          "material": 1,
          "mode": 4
        }
      ]
    },
    {
      "name": "Object_10",
      "primitives": [
        {
          "attributes": {
            "NORMAL": 41,
            "POSITION": 40,
            "TEXCOORD_0": 42
          },
          "indices": 43,
          "material": 2,
          "mode": 4
        }
      ]
    },
    {
      "name": "Object_11",
      "primitives": [
        {
          "attributes": {
            "NORMAL": 45,
            "POSITION": 44,
            "TEXCOORD_0": 46
          },
          "indices": 47,
          "material": 0,
          "mode": 4
        }
      ]
    }
  ],
  "nodes": [
    {
      "children": [
        1
      ],
      "matrix": [
        1.0,
        0.0,
        0.0,
        0.0,
        0.0,
        2.220446049250313e-16,
        -1.0,
        0.0,
        0.0,
        1.0,
        2.220446049250313e-16,
        0.0,
        0.0,
        0.0,
        0.0,
        1.0
      ],
      "name": "Sketchfab_model"
    },
    {
      "children": [
        2
      ],
      "name": "root"
    },
    {
      "children": [
        3,
        15
      ],
      "matrix": [
        1.0,
        0.0,
        0.0,
        0.0,
        0.0,
        2.220446049250313e-16,
        1.0,
        0.0,
        0.0,
        -1.0,
        2.220446049250313e-16,
        0.0,
        0.0,
        0.0,
        0.0,
        1.0
      ],
      "name": "GLTF_SceneRootNode"
    },
    {
      "children": [
        4,
        5,
        6,
        7,
        8,
        9,
        10,
        11,
        12,
        13,
        14
      ],
      "matrix": [
        0.9758497476577759,
        0.0,
        0.0,
        0.0,
        0.0,
        0.0,
        0.9601215720176697,
        0.0,
        0.0,
        -0.9863609075546265,
        0.0,
        0.0,
        0.014247629791498184,
        1.4829421043395996,
        0.08598622679710388,
        1.0
      ],
      "name": "coin_0"
    },
    {
      "mesh": 0,
      "name": "Object_4"
    },
    {
      "mesh": 1,
      "name": "Object_5"
    },
    {
      "mesh": 2,
      "name": "Object_6"
    },
    {
      "mesh": 3,
      "name": "Object_7"
    },
    {
      "mesh": 4,
      "name": "Object_8"
    },
    {
      "mesh": 5,
      "name": "Object_9"
    },
    {
      "mesh": 6,
      "name": "Object_10"
    },
    {
      "mesh": 7,
      "name": "Object_11"
    },
    {
      "mesh": 8,
      "name": "Object_12"
    },
    {
      "mesh": 9,
      "name": "Object_13"
    },
    {
      "mesh": 10,
      "name": "Object_14"
    },
    {
      "children": [
        16
      ],
      "matrix": [
        0.42775988578796387,
        0.0,
        0.0,
        0.0,
        0.0,
        0.0,
        0.42775988578796387,
        0.0,
        0.0,
        -0.42775988578796387,
        0.0,
        0.0,
        -0.007820963859558105,
        1.7599388360977173,
        -0.07090243697166443,
        1.0
      ],
      "name": "etc logo _1"
    },
    {
      "mesh": 11,
      "name": "Object_16"
    }
  ],
  "samplers": [
    {
      "magFilter": 9729,
      "minFilter": 9987,
      "wrapS": 10497,
      "wrapT": 10497
    }
  ],
  "scene": 0,
  "scenes": [
    {
      "name": "Sketchfab_Scene",
      "nodes": [
        0
      ]
    }
  ],
  "textures": [
    {
      "sampler": 0,
      "source": 0
    },
    {
      "sampler": 0,
      "source": 1
    },
    {
      "sampler": 0,
      "source": 2
    }
  ]
}
