{
  "accessors": [
    {
      "bufferView": 2,
      "componentType": 5126,
      "count": 260,
      "max": [
        154.8036346435547,
        156.15359497070313,
        17.6097354888916
      ],
      "min": [
        -156.03053283691406,
        -154.68057250976563,
        -17.60972023010254
      ],
      "type": "VEC3"
    },
    {
      "bufferView": 2,
      "byteOffset": 3120,
      "componentType": 5126,
      "count": 260,
      "max": [
        0.827989399433136,
        0.827989399433136,
        1.0
      ],
      "min": [
        -0.827989399433136,
        -0.827989399433136,
        -1.0
      ],
      "type": "VEC3"
    },
    {
      "bufferView": 3,
      "componentType": 5126,
      "count": 260,
      "max": [
        0.9998313784599304,
        0.9998316168785095,
        0.8270893692970276,
        1.0
      ],
      "min": [
        -0.9998300075531006,
        -0.9984849691390991,
        -0.8270823955535889,
        1.0
      ],
      "type": "VEC4"
    },
    {
      "bufferView": 1,
      "componentType": 5126,
      "count": 260,
      "max": [
        0.9919180274009705,
        0.9900000095367432
      ],
      "min": [
        0.007588000036776066,
        0.006139039993286133
      ],
      "type": "VEC2"
    },
    {
      "bufferView": 0,
      "componentType": 5125,
      "count": 1152,
      "type": "SCALAR"
    }
  ],
  "asset": {
    "extras": {
      "author": "Idmental (https://sketchfab.com/idmental.id)",
      "license": "CC-BY-4.0 (http://creativecommons.org/licenses/by/4.0/)",
      "source": "https://sketchfab.com/3d-models/bitcoin-2f60c58328244f52a257b4cb71d68e3e",
      "title": "BITCOIN"
    },
    "generator": "Sketchfab-12.29.0",
    "version": "2.0"
  },
  "bufferViews": [
    {
      "buffer": 0,
      "byteLength": 4608,
      "name": "floatBufferViews",
      "target": 34963
    },
    {
      "buffer": 0,
      "byteLength": 2080,
      "byteOffset": 4608,
      "byteStride": 8,
      "name": "floatBufferViews",
      "target": 34962
    },
    {
      "buffer": 0,
      "byteLength": 6240,
      "byteOffset": 6688,
      "byteStride": 12,
      "name": "floatBufferViews",
      "target": 34962
    },
    {
      "buffer": 0,
      "byteLength": 4160,
      "byteOffset": 12928,
      "byteStride": 16,
      "name": "floatBufferViews",
      "target": 34962
    }
  ],
  "buffers": [
    {
      "byteLength": 17088,
      "uri": "scene.bin"
    }
  ],
  "images": [
    {
      "uri": "textures/BITCOIN_baseColor.png"
    },
    {
      "uri": "textures/BITCOIN_metallicRoughness.png"
    },
    {
      "uri": "textures/BITCOIN_normal.png"
    }
  ],
  "materials": [
    {
      "doubleSided": true,
      "name": "BITCOIN",
      "normalTexture": {
        "index": 2,
        "scale": 0.10907040095343493
      },
      "occlusionTexture": {
        "index": 1
      },
      "pbrMetallicRoughness": {
        "baseColorTexture": {
          "index": 0
        },
        "metallicRoughnessTexture": {
          "index": 1
        },
        "roughnessFactor": 0.33405185518491043
      }
    }
  ],
  "meshes": [
    {
      "name": "Object_0",
      "primitives": [
        {
          "attributes": {
            "NORMAL": 1,
            "POSITION": 0,
            "TANGENT": 2,
            "TEXCOORD_0": 3
          },
          "indices": 4,
          "material": 0,
          "mode": 4
        }
      ]
    }
  ],
  "nodes": [
    {
      "children": [
        1
      ],
      "matrix": [
        1.0,
        0.0,
        0.0,
        0.0,
        0.0,
        2.220446049250313e-16,
        -1.0,
        0.0,
        0.0,
        1.0,
        2.220446049250313e-16,
        0.0,
        0.0,
        0.0,
        0.0,
        1.0
      ],
      "name": "Sketchfab_model"
    },
    {
      "children": [
        2
      ],
      "name": "BITCOIN NEW.obj.cleaner.materialmerger.gles"
    },
    {
      "mesh": 0,
      "name": "Object_2"
    }
  ],
  "samplers": [
    {
      "magFilter": 9729,
      "minFilter": 9987,
      "wrapS": 10497,
      "wrapT": 10497
    }
  ],
  "scene": 0,
  "scenes": [
    {
      "name": "Sketchfab_Scene",
      "nodes": [
        0
      ]
    }
  ],
  "textures": [
    {
      "sampler": 0,
      "source": 0
    },
    {
      "sampler": 0,
      "source": 1
    },
    {
      "sampler": 0,
      "source": 2
    }
  ]
}
